grf
version=1
nRows=34
nColumns=19
inDegrees=no
endheader
time	ground_force_r_vx	ground_force_r_vy	ground_force_r_vz	ground_force_r_px	ground_force_r_py	ground_force_r_pz	ground_torque_r_x	ground_torque_r_y	ground_torque_r_z	ground_force_l_vx	ground_force_l_vy	ground_force_l_vz	ground_force_l_px	ground_force_l_py	ground_force_l_pz	ground_torque_l_x	ground_torque_l_y	ground_torque_l_z
      0.64800000	      0.00000000	      0.00000000	      0.00000000	      0.00000000	      0.00000000	      0.00000000	      0.00000000	      0.00000000	      0.00000000	     85.38373037	   2101.46593333	    -96.33285022	     -0.09289857	      0.00000000	      0.17826957	     -0.36359229	     -8.10604055	      0.36795268
      0.64900000	      0.00000000	      0.00000000	      0.00000000	      0.00000000	      0.00000000	      0.00000000	      0.00000000	      0.00000000	      0.00000000	    107.69192160	   2099.22134388	    -93.16838672	     -0.09262891	      0.00000000	      0.17833987	     -0.43342528	     -7.22950968	      0.31197217
      0.65000000	      0.00000000	      0.00000000	      0.00000000	      0.00000000	      0.00000000	      0.00000000	      0.00000000	      0.00000000	      0.00000000	    129.00961283	   2095.70290969	    -90.51132441	     -0.09234709	      0.00000000	      0.17841609	     -0.47426205	     -6.40836247	      0.26377560
      0.65100000	      0.00000000	      0.00000000	      0.00000000	      0.00000000	      0.00000000	      0.00000000	      0.00000000	      0.00000000	      0.00000000	    149.59916277	   2091.05864856	    -88.29064290	     -0.09205999	      0.00000000	      0.17849137	     -0.49356948	     -5.63023552	      0.22153399
      0.65200000	      0.00000000	      0.00000000	      0.00000000	      0.00000000	      0.00000000	      0.00000000	      0.00000000	      0.00000000	      0.00000000	    169.37796073	   2084.88086962	    -86.58933270	     -0.09177397	      0.00000000	      0.17856011	     -0.48809823	     -4.89684648	      0.18578373
      0.65300000	      0.00000000	      0.00000000	      0.00000000	      0.00000000	      0.00000000	      0.00000000	      0.00000000	      0.00000000	      0.00000000	    188.59396942	   2077.35893755	    -85.23407585	     -0.09149152	      0.00000000	      0.17862177	     -0.46412219	     -4.18742653	      0.15415641
      0.65400000	      0.00000000	      0.00000000	      0.00000000	      0.00000000	      0.00000000	      0.00000000	      0.00000000	      0.00000000	      0.00000000	    207.23375979	   2068.00717855	    -84.16472368	     -0.09121075	      0.00000000	      0.17867637	     -0.41867359	     -3.49194015	      0.12619479
      0.65500000	      0.00000000	      0.00000000	      0.00000000	      0.00000000	      0.00000000	      0.00000000	      0.00000000	      0.00000000	      0.00000000	    225.52947103	   2057.06166135	    -83.18539785	     -0.09092701	      0.00000000	      0.17872837	     -0.35738503	     -2.79732228	      0.10011199
      0.65600000	      0.00000000	      0.00000000	      0.00000000	      0.00000000	      0.00000000	      0.00000000	      0.00000000	      0.00000000	      0.00000000	    243.57276468	   2043.98567467	    -82.14311296	     -0.09063564	      0.00000000	      0.17878053	     -0.27890387	     -2.09921179	      0.07545022
      0.65700000	      0.00000000	      0.00000000	      0.00000000	      0.00000000	      0.00000000	      0.00000000	      0.00000000	      0.00000000	      0.00000000	    261.56426624	   2029.08472291	    -80.92981092	     -0.09033612	      0.00000000	      0.17883377	     -0.18939992	     -1.40217300	      0.05156966
      0.65800000	      0.00000000	      0.00000000	      0.00000000	      0.00000000	      0.00000000	      0.00000000	      0.00000000	      0.00000000	      0.00000000	    279.67458967	   2011.78384837	    -79.40502320	     -0.09002665	      0.00000000	      0.17888666	     -0.08988943	     -0.71728518	      0.02857697
      0.65900000	      0.00000000	      0.00000000	      0.00000000	      0.00000000	      0.00000000	      0.00000000	      0.00000000	      0.00000000	      0.00000000	    298.01306847	   1992.45191606	    -77.60034233	     -0.08971131	      0.00000000	      0.17893695	      0.01548860	     -0.05048872	      0.00630919
      0.66000000	      0.00000000	      0.00000000	      0.00000000	      0.00000000	      0.00000000	      0.00000000	      0.00000000	      0.00000000	      0.00000000	    316.76433310	   1970.48417204	    -75.48743064	     -0.08939571	      0.00000000	      0.17898233	      0.12795309	      0.59067727	     -0.01521344
      0.66100000	      0.00000000	      0.00000000	      0.00000000	      0.00000000	      0.00000000	      0.00000000	      0.00000000	      0.00000000	      0.00000000	    335.91512862	   1946.30775390	    -73.20673725	     -0.08908756	      0.00000000	      0.17902387	      0.24811742	      1.21525792	     -0.03648012
      0.66200000	      0.00000000	      0.00000000	      0.00000000	      0.00000000	      0.00000000	      0.00000000	      0.00000000	      0.00000000	      0.00000000	    355.58374854	   1919.29979392	    -70.86591757	     -0.08879579	      0.00000000	      0.17906213	      0.38334008	      1.83342654	     -0.05820787
      0.66300000	      0.00000000	      0.00000000	      0.00000000	      0.00000000	      0.00000000	      0.00000000	      0.00000000	      0.00000000	      0.00000000	    375.64872507	   1889.94797067	    -68.60873907	     -0.08851890	      0.00000000	      0.17910124	      0.53619222	      2.46013296	     -0.08104346
      0.66400000	      0.00000000	      0.00000000	      0.00000000	      0.00000000	      0.00000000	      0.00000000	      0.00000000	      0.00000000	      0.00000000	    396.12382992	   1857.65170139	    -66.61108039	     -0.08825404	      0.00000000	      0.17914984	      0.71707428	      3.11074767	     -0.10605148
      0.66500000	      0.00000000	      0.00000000	      0.00000000	      0.00000000	      0.00000000	      0.00000000	      0.00000000	      0.00000000	      0.00000000	    416.83157157	   1822.97360803	    -64.92520880	     -0.08799316	      0.00000000	      0.17921601	      0.92388503	      3.78505219	     -0.13320674
      0.66600000	      0.00000000	      0.00000000	      0.00000000	      0.00000000	      0.00000000	      0.00000000	      0.00000000	      0.00000000	      0.00000000	    437.65349253	   1785.40782070	    -63.69606337	     -0.08773575	      0.00000000	      0.17931826	      1.16350097	      4.48343701	     -0.16299968
      0.66700000	      0.00000000	      0.00000000	      0.00000000	      0.00000000	      0.00000000	      0.00000000	      0.00000000	      0.00000000	      0.00000000	    458.39509422	   1745.58173078	    -62.84473526	     -0.08748347	      0.00000000	      0.17946062	      1.42800030	      5.19058652	     -0.19454121
      0.66800000	      0.00000000	      0.00000000	      0.00000000	      0.00000000	      0.00000000	      0.00000000	      0.00000000	      0.00000000	      0.00000000	    478.78533882	   1703.09800827	    -62.40127320	     -0.08724045	      0.00000000	      0.17966149	      1.71893672	      5.88980444	     -0.22735042
      0.66900000	      0.00000000	      0.00000000	      0.00000000	      0.00000000	      0.00000000	      0.00000000	      0.00000000	      0.00000000	      0.00000000	    498.67005419	   1658.59146187	    -62.19821174	     -0.08700770	      0.00000000	      0.17991145	      2.02731259	      6.56698649	     -0.26029777
      0.67000000	      0.00000000	      0.00000000	      0.00000000	      0.00000000	      0.00000000	      0.00000000	      0.00000000	      0.00000000	      0.00000000	    517.64475536	   1611.77750573	    -62.13458038	     -0.08678772	      0.00000000	      0.18021442	      2.35226808	      7.19964101	     -0.29218816
      0.67100000	      0.00000000	      0.00000000	      0.00000000	      0.00000000	      0.00000000	      0.00000000	      0.00000000	      0.00000000	      0.00000000	    535.64705527	   1563.23619905	    -62.03945963	     -0.08657282	      0.00000000	      0.18054855	      2.68739026	      7.78533005	     -0.32223581
      0.67200000	      0.00000000	      0.00000000	      0.00000000	      0.00000000	      0.00000000	      0.00000000	      0.00000000	      0.00000000	      0.00000000	    552.16120037	   1512.73691193	    -61.72724663	     -0.08635063	      0.00000000	      0.18090126	      3.03066870	      8.30242208	     -0.34883230
      0.67300000	      0.00000000	      0.00000000	      0.00000000	      0.00000000	      0.00000000	      0.00000000	      0.00000000	      0.00000000	      0.00000000	    567.23301723	   1460.77402941	    -61.11065036	     -0.08611194	      0.00000000	      0.18125261	      3.37735870	      8.75781362	     -0.37178597
      0.67400000	      0.00000000	      0.00000000	      0.00000000	      0.00000000	      0.00000000	      0.00000000	      0.00000000	      0.00000000	      0.00000000	    580.26775732	   1407.17543822	    -59.99372812	     -0.08585249	      0.00000000	      0.18158721	      3.72620607	      9.13639063	     -0.38951032
      0.67500000	      0.00000000	      0.00000000	      0.00000000	      0.00000000	      0.00000000	      0.00000000	      0.00000000	      0.00000000	      0.00000000	    591.46599326	   1352.37477870	    -58.39616126	     -0.08558184	      0.00000000	      0.18190210	      4.07645512	      9.45530445	     -0.40255535
      0.67600000	      0.00000000	      0.00000000	      0.00000000	      0.00000000	      0.00000000	      0.00000000	      0.00000000	      0.00000000	      0.00000000	    600.25672567	   1296.24726067	    -56.15640133	     -0.08530137	      0.00000000	      0.18219608	      4.42808769	      9.70601423	     -0.40944625
      0.67700000	      0.00000000	      0.00000000	      0.00000000	      0.00000000	      0.00000000	      0.00000000	      0.00000000	      0.00000000	      0.00000000	    607.01323837	   1239.15651810	    -53.38026743	     -0.08501069	      0.00000000	      0.18248393	      4.77933739	      9.90373534	     -0.41101518
      0.67800000	      0.00000000	      0.00000000	      0.00000000	      0.00000000	      0.00000000	      0.00000000	      0.00000000	      0.00000000	      0.00000000	    611.24048300	   1181.03830464	    -49.97909413	     -0.08469766	      0.00000000	      0.18278341	      5.12644997	     10.03760901	     -0.40585935
      0.67900000	      0.00000000	      0.00000000	      0.00000000	      0.00000000	      0.00000000	      0.00000000	      0.00000000	      0.00000000	      0.00000000	    613.38327007	   1122.21590911	    -46.13761644	     -0.08435218	      0.00000000	      0.18310453	      5.46504384	     10.11790738	     -0.39533786
      0.68000000	      0.00000000	      0.00000000	      0.00000000	      0.00000000	      0.00000000	      0.00000000	      0.00000000	      0.00000000	      0.00000000	    612.93131709	   1062.71491245	    -41.90734186	     -0.08393920	      0.00000000	      0.18345263	      5.78300508	     10.12705234	     -0.37893932
      0.68100000	      0.00000000	      0.00000000	      0.00000000	      0.00000000	      0.00000000	      0.00000000	      0.00000000	      0.00000000	      0.00000000	    610.32325890	   1002.82155375	    -37.51354379	     -0.08344343	      0.00000000	      0.18380872	      6.07396995	     10.07184894	     -0.35864238
